<?xml version="1.0" encoding="UTF-8"?>
<svg id="Layer_1" data-name="Layer 1" xmlns="http://www.w3.org/2000/svg" xmlns:xlink="http://www.w3.org/1999/xlink" viewBox="0 0 512 512.03">
  <defs>
    <filter id="drop-shadow-1" x="-39" y="-29" width="590" height="590" filterUnits="userSpaceOnUse">
      <feOffset dx="0" dy="10"/>
      <feGaussianBlur result="blur" stdDeviation="13"/>
      <feFlood flood-color="#0045a2" flood-opacity=".11"/>
      <feComposite in2="blur" operator="in"/>
      <feComposite in="SourceGraphic"/>
    </filter>
    <clipPath id="clippath">
      <rect width="512" height="512" style="fill: none;"/>
    </clipPath>
    <linearGradient id="linear-gradient" x1="75.06" y1="75.06" x2="402.1" y2="402.09" gradientUnits="userSpaceOnUse">
      <stop offset="0" stop-color="#00daf6"/>
      <stop offset="1" stop-color="#2164ff"/>
    </linearGradient>
    <linearGradient id="linear-gradient-2" x1="327.03" y1="327.03" x2="449.6" y2="449.6" xlink:href="#linear-gradient"/>
  </defs>
  <g style="filter: url(#drop-shadow-1);">
    <g style="clip-path: url(#clippath);">
      <g>
        <path d="M355.92,204.8c1.54,16.1,2.48,33.08,2.48,51.2,0,6.79-2.7,13.3-7.5,18.1s-11.31,7.5-18.1,7.5-13.3-2.7-18.1-7.5-7.5-11.31-7.5-18.1c0-18.25-1-35.28-2.69-51.2h-97.36c-3.56,34.04-3.59,68.35-.1,102.4h48.95c6.79,0,13.3,2.7,18.1,7.5s7.5,11.31,7.5,18.1-2.7,13.3-7.5,18.1-11.31,7.5-18.1,7.5h-40.55c12.01,53.25,30.77,87.3,40.58,102.4,0,0,20.2.33,23.71.05,6.76-.44,13.42,1.8,18.55,6.23,5.13,4.43,8.3,10.7,8.84,17.45.49,6.77-1.72,13.46-6.16,18.59-4.44,5.14-10.73,8.3-17.5,8.8-2.41.18-27.47.08-27.47.08C114.84,512,0,397.16,0,256S114.84,0,256,0s256,114.82,256,256c0,9.7-.92,19.17-2.02,28.57-1.02,6.55-4.53,12.46-9.81,16.47-5.28,4.01-11.91,5.82-18.49,5.05-6.59-.77-12.62-4.07-16.82-9.19-4.21-5.13-6.26-11.68-5.74-18.29.9-7.45,1.69-14.92,1.69-22.6,0-17.72-2.51-34.82-6.73-51.2h-98.15ZM255.69,52.12c-9.88,15.51-28.16,49.43-40.04,101.48h80.31c-11.93-52.04-30.34-85.96-40.27-101.48ZM57.93,307.2h97.77c-1.48-16.1-2.43-33.02-2.43-51.1.02-17.13.84-34.25,2.46-51.3H57.93c-4.25,16.38-6.73,33.48-6.73,51.2.06,17.28,2.33,34.49,6.73,51.2ZM78.9,358.4c25.28,43.61,65.7,76.42,113.59,92.19-13.34-29.48-23.2-60.42-29.39-92.19h-84.2ZM163.15,153.6c7.71-38.43,18.82-69.2,29.44-92.24-47.93,15.75-88.4,48.58-113.69,92.24h84.25ZM348.47,153.6h84.61c-25.4-43.86-66.1-76.79-114.3-92.47,13.5,29.55,23.47,60.58,29.7,92.47Z" style="fill: url(#linear-gradient); fill-rule: evenodd;"/>
        <path d="M389.71,485l-65.28-143.62c-4.89-10.77,6.18-21.84,16.95-16.95l143.62,65.29c9.8,4.45,10.06,18.29.43,23.1l-44.59,22.3c-2.48,1.24-4.49,3.25-5.72,5.72l-22.3,44.6c-4.82,9.63-18.64,9.37-23.1-.43h0Z" style="fill: url(#linear-gradient-2);"/>
      </g>
    </g>
  </g>
</svg>