<?xml version="1.0" encoding="UTF-8"?>
<svg id="Layer_1" xmlns="http://www.w3.org/2000/svg" version="1.1" viewBox="0 0 225.6 154.5">
  <!-- Generator: Adobe Illustrator 29.0.1, SVG Export Plug-In . SVG Version: 2.1.0 Build 192)  -->
  <defs>
    <style>
      .st0 {
        fill: #00d9f5;
      }
    </style>
  </defs>
  <path class="st0" d="M157.5,153.8s0-76.9,68.1-76.9c-68.1,0-68.1-76.9-68.1-76.9,0,0,0,76.9-68.1,76.9,68.1,0,68.1,76.9,68.1,76.9h0Z"/>
  <path class="st0" d="M37.9,154.5s0-42.8,37.9-42.8c-37.9,0-37.9-42.8-37.9-42.8,0,0,0,42.8-37.9,42.8,37.9,0,37.9,42.8,37.9,42.8Z"/>
  <path class="st0" d="M67.4,51s0-21.4,19-21.4c-19,0-19-21.4-19-21.4,0,0,0,21.4-19,21.4,19,0,19,21.4,19,21.4Z"/>
</svg>