<?xml version="1.0" encoding="UTF-8"?>
<svg id="Isolation_Mode" data-name="Isolation Mode" xmlns="http://www.w3.org/2000/svg" viewBox="0 0 1044 612.23">
  <path d="M393.2,306.11c0-94.21,42.57-178.47,109.51-234.62C449.53,26.88,380.96,0,306.11,0,137.05,0,0,137.05,0,306.11s137.05,306.11,306.11,306.11c74.85,0,143.41-26.88,196.6-71.49-66.94-56.15-109.51-140.41-109.51-234.62Z"/>
  <path d="M737.89,0c-.95,0-1.9.02-2.84.03-.95,0-1.89-.03-2.84-.03-169.06,0-306.11,137.05-306.11,306.11s137.05,306.11,306.11,306.11c.95,0,1.9-.02,2.84-.03.95,0,1.89.03,2.84.03,169.06,0,306.11-137.05,306.11-306.11S906.95,0,737.89,0Z"/>
</svg>