<?xml version="1.0" encoding="UTF-8"?>
<svg id="Layer_1" data-name="Layer 1" xmlns="http://www.w3.org/2000/svg" xmlns:xlink="http://www.w3.org/1999/xlink" viewBox="0 0 60 60">
  <defs>
    <filter id="drop-shadow-1" x="-39" y="-29" width="138" height="138" filterUnits="userSpaceOnUse">
      <feOffset dx="0" dy="10"/>
      <feGaussianBlur result="blur" stdDeviation="13"/>
      <feFlood flood-color="#0045a2" flood-opacity=".11"/>
      <feComposite in2="blur" operator="in"/>
      <feComposite in="SourceGraphic"/>
    </filter>
    <linearGradient id="linear-gradient" x1="2.34" y1="2.34" x2="25.66" y2="25.66" gradientUnits="userSpaceOnUse">
      <stop offset="0" stop-color="#00daf6"/>
      <stop offset="1" stop-color="#2164ff"/>
    </linearGradient>
    <linearGradient id="linear-gradient-2" x1="38.59" y1="6.59" x2="53.41" y2="21.41" xlink:href="#linear-gradient"/>
    <linearGradient id="linear-gradient-3" x1="2.34" y1="34.34" x2="25.66" y2="57.66" xlink:href="#linear-gradient"/>
    <linearGradient id="linear-gradient-4" x1="34.34" y1="34.34" x2="57.66" y2="57.66" xlink:href="#linear-gradient"/>
  </defs>
  <g style="filter: url(#drop-shadow-1);">
    <path d="M8,0C3.58,0,0,3.58,0,8v12c0,4.42,3.58,8,8,8h12c4.42,0,8-3.58,8-8v-12c0-4.42-3.58-8-8-8h-12Z" style="fill: url(#linear-gradient); fill-rule: evenodd;"/>
    <path d="M47.95,1.56c-.21-.91-1.02-1.56-1.95-1.56s-1.74.65-1.95,1.56l-1.11,4.87c-.51,2.25-2.27,4.01-4.52,4.52l-4.87,1.11c-.91.21-1.56,1.02-1.56,1.95s.65,1.74,1.56,1.95l4.87,1.11c2.25.51,4.01,2.27,4.52,4.52l1.11,4.87c.21.91,1.02,1.56,1.95,1.56s1.74-.65,1.95-1.56l1.11-4.87c.51-2.25,2.27-4.01,4.52-4.52l4.87-1.11c.91-.21,1.56-1.02,1.56-1.95s-.65-1.74-1.56-1.95l-4.87-1.11c-2.25-.51-4.01-2.27-4.52-4.52l-1.11-4.87Z" style="fill: url(#linear-gradient-2); fill-rule: evenodd;"/>
    <path d="M0,40c0-4.42,3.58-8,8-8h12c4.42,0,8,3.58,8,8v12c0,4.42-3.58,8-8,8h-12c-4.42,0-8-3.58-8-8v-12Z" style="fill: url(#linear-gradient-3); fill-rule: evenodd;"/>
    <path d="M40,32c-4.42,0-8,3.58-8,8v12c0,4.42,3.58,8,8,8h12c4.42,0,8-3.58,8-8v-12c0-4.42-3.58-8-8-8h-12Z" style="fill: url(#linear-gradient-4); fill-rule: evenodd;"/>
  </g>
</svg>