<?xml version="1.0" encoding="UTF-8"?>
<svg id="Layer_1" data-name="Layer 1" xmlns="http://www.w3.org/2000/svg" viewBox="0 0 413.93 413.93">
  <path d="M206.97,0C92.74,0,0,92.74,0,206.97s92.74,206.96,206.97,206.96,206.96-92.74,206.96-206.96S321.19,0,206.97,0ZM264.05,278.61l-17.85,17.85c-6.21,6.21-6.21,16.3,0,22.51s16.3,6.21,22.52,0l45.03-45.03c6.22-6.22,6.22-16.3,0-22.51l-45.03-45.03c-6.21-6.21-16.3-6.21-22.52,0s-6.21,16.3,0,22.51l17.85,17.85H111.44c-8.79,0-15.92,7.13-15.92,15.92s7.13,15.92,15.92,15.92h152.61ZM149.88,135.32l17.85-17.86c6.21-6.21,6.21-16.3,0-22.51-6.21-6.21-16.3-6.21-22.51,0l-45.03,45.03c-6.22,6.22-6.22,16.3,0,22.52l45.03,45.03c6.21,6.21,16.3,6.21,22.51,0s6.21-16.3,0-22.52l-17.85-17.85h152.61c8.78,0,15.92-7.13,15.92-15.92s-7.13-15.92-15.92-15.92h-152.61Z" style="fill: #67748e; fill-rule: evenodd;"/>
</svg>