<?xml version="1.0" encoding="UTF-8"?>
<svg id="Layer_1" data-name="Layer 1" xmlns="http://www.w3.org/2000/svg" viewBox="0 0 448 320.08">
  <path d="M226.9.02l-2.9-.02C101.33,0,1.57,98.82.02,221.1l-.02,2.9c0,30.53,6.13,59.63,17.2,86.16,2.48,5.97,8.3,9.84,14.77,9.84l384.03.08c6.45,0,12.27-3.87,14.77-9.82,11.09-26.56,17.23-55.7,17.23-86.26C448,101.33,349.18,1.57,226.9.02ZM208,178.74c-18.64,6.59-32,24.38-32,45.26,0,26.5,21.5,48,48,48s48-21.5,48-48c0-20.88-13.36-38.67-32-45.26v-50.74c0-8.83-7.17-16-16-16s-16,7.17-16,16v50.74ZM415.34,208h-31.34c-8.83,0-16,7.17-16,16s7.17,16,16,16h31.34c.43-5.28.66-10.61.66-16s-.22-10.72-.66-16ZM224,208c8.83,0,16,7.17,16,16s-7.17,16-16,16-16-7.17-16-16,7.17-16,16-16h0ZM32.66,208c-.43,5.28-.43,26.72,0,32h31.34c8.83,0,16-7.17,16-16s-7.17-16-16-16h-31.34ZM347.95,77.42l-23.26,23.26c-6.24,6.24-6.24,16.38,0,22.62,6.24,6.24,16.38,6.24,22.62,0l23.26-23.26c-6.9-8.16-14.46-15.73-22.62-22.62ZM100.05,77.42c-8.16,6.9-15.73,14.46-22.62,22.62l23.26,23.26c6.24,6.24,16.38,6.24,22.62,0,6.24-6.24,6.24-16.38,0-22.62l-23.26-23.26ZM208,32.66v31.34c0,8.83,7.17,16,16,16s16-7.17,16-16v-31.34c-5.28-.43-10.61-.66-16-.66s-10.72.22-16,.66Z" style="fill: #67748e; fill-rule: evenodd;"/>
</svg>