<?xml version="1.0" encoding="UTF-8"?>
<svg id="Layer_1" data-name="Layer 1" xmlns="http://www.w3.org/2000/svg" viewBox="0 0 384 440">
  <g id="Layer_1-2" data-name="Layer 1">
    <g>
      <path d="M248,344c8.84,0,16-7.16,16-16v-160c0-8.84-7.16-16-16-16s-16,7.16-16,16v160c0,8.84,7.16,16,16,16Z" style="fill: #67748e;"/>
      <path d="M136,344c8.84,0,16-7.16,16-16v-160c0-8.84-7.16-16-16-16s-16,7.16-16,16v160c0,8.84,7.16,16,16,16Z" style="fill: #67748e;"/>
      <path d="M256,32c8.84,0,16-7.16,16-16s-7.16-16-16-16h-128c-8.84,0-16,7.16-16,16s7.16,16,16,16h128Z" style="fill: #67748e;"/>
      <path d="M16,48c-8.84,0-16,7.16-16,16s7.16,16,16,16h16v294.4c0,36.16,29.44,65.6,65.6,65.6h188.8c36.16,0,65.6-29.44,65.6-65.6V80h16c8.84,0,16-7.16,16-16s-7.16-16-16-16H16ZM320,80v294.4c0,18.56-15.04,33.6-33.6,33.6H97.6c-18.56,0-33.6-15.04-33.6-33.6V80h256Z" style="fill: #67748e;"/>
    </g>
  </g>
</svg>