<?xml version="1.0" encoding="UTF-8"?>
<svg id="Layer_1" data-name="Layer 1" xmlns="http://www.w3.org/2000/svg" xmlns:xlink="http://www.w3.org/1999/xlink" viewBox="0 0 590 590">
  <defs>
    <linearGradient id="linear-gradient" x1="70.28" y1="60.28" x2="519.72" y2="509.72" gradientUnits="userSpaceOnUse">
      <stop offset="0" stop-color="#00daf6"/>
      <stop offset="1" stop-color="#2164ff"/>
    </linearGradient>
    <filter id="drop-shadow-1" x="0" y="0" width="590" height="590" filterUnits="userSpaceOnUse">
      <feOffset dx="0" dy="10"/>
      <feGaussianBlur result="blur" stdDeviation="13"/>
      <feFlood flood-color="#0045a2" flood-opacity=".11"/>
      <feComposite in2="blur" operator="in"/>
      <feComposite in="SourceGraphic"/>
    </filter>
  </defs>
  <path d="M444.33,29H145.67c-58.88.07-106.6,47.79-106.67,106.67v298.67c.07,58.88,47.79,106.6,106.67,106.67h298.67c58.88-.07,106.6-47.79,106.67-106.67V135.67c-.07-58.88-47.79-106.6-106.67-106.67ZM401.67,242.33c-11.78,0-21.33-9.55-21.33-21.33s-9.55-21.33-21.33-21.33h-42.67v170.67h21.33c11.78,0,21.33,9.55,21.33,21.33s-9.55,21.33-21.33,21.33h-85.33c-11.78,0-21.33-9.55-21.33-21.33s9.55-21.33,21.33-21.33h21.33v-170.67h-42.67c-11.78,0-21.33,9.55-21.33,21.33s-9.55,21.33-21.33,21.33-21.33-9.55-21.33-21.33c0-35.35,28.65-64,64-64h128c35.35,0,64,28.65,64,64,0,11.78-9.55,21.33-21.33,21.33Z" style="fill: url(#linear-gradient); filter: url(#drop-shadow-1);"/>
</svg>