<?xml version="1.0" encoding="UTF-8"?>
<svg id="solid" xmlns="http://www.w3.org/2000/svg" viewBox="0 0 32 31.95">
  <path d="M6,21.01H.82c-.53-1.59-.82-3.27-.82-5.04,0-2.2.45-4.3,1.26-6.22h4.94c-.37,1.93-.57,4.03-.57,6.22,0,1.75.13,3.45.37,5.04Z"/>
  <path d="M6.32,22.79c.65,3.09,1.75,5.77,3.15,7.8-3.5-1.56-6.32-4.34-7.95-7.8h4.8,0Z"/>
  <path d="M15.11,22.79v9.16c-.75-.04-1.49-.13-2.22-.27-2.09-1.65-3.79-4.88-4.73-8.89h6.95Z"/>
  <path d="M15.11,9.75v11.26h-7.3c-.26-1.6-.4-3.29-.4-5.04,0-2.18.23-4.29.63-6.22h7.08Z"/>
  <path d="M9.47,1.36c-1.22,1.77-2.2,4.02-2.87,6.61H2.15c1.67-2.9,4.24-5.23,7.32-6.61Z"/>
  <path d="M15.11,0v7.98h-6.64c.97-3.46,2.55-6.22,4.42-7.7.72-.14,1.47-.24,2.22-.27Z"/>
  <path d="M23.53,7.98h-6.64V0c.75.04,1.49.13,2.22.27,1.87,1.48,3.45,4.24,4.42,7.7Z"/>
  <path d="M16.89,22.79h6.95c-.94,4.01-2.64,7.24-4.73,8.89-.72.14-1.47.24-2.22.27v-9.16Z"/>
  <path d="M24.59,15.98c0,1.74-.14,3.44-.4,5.04h-7.3v-11.26h7.08c.4,1.93.63,4.04.63,6.22h0Z"/>
  <path d="M25.4,7.98c-.66-2.6-1.65-4.85-2.87-6.61,3.08,1.39,5.65,3.71,7.32,6.61h-4.46Z"/>
  <path d="M25.68,22.79h4.8c-1.64,3.46-4.46,6.23-7.95,7.8,1.4-2.03,2.5-4.71,3.15-7.8h0Z"/>
  <path d="M32,15.98c0,1.77-.28,3.45-.82,5.04h-5.18c.24-1.59.37-3.28.37-5.04,0-2.19-.2-4.29-.57-6.22h4.94c.81,1.92,1.26,4.02,1.26,6.22h0Z"/>
</svg>