<?xml version="1.0" encoding="UTF-8"?>
<svg id="solid" xmlns="http://www.w3.org/2000/svg" xmlns:xlink="http://www.w3.org/1999/xlink" viewBox="0 0 384 396.8">
  <defs>
    <filter id="drop-shadow-1" x="-39" y="-29" width="462" height="475" filterUnits="userSpaceOnUse">
      <feOffset dx="0" dy="10"/>
      <feGaussianBlur result="blur" stdDeviation="13"/>
      <feFlood flood-color="#0045a2" flood-opacity=".11"/>
      <feComposite in2="blur" operator="in"/>
      <feComposite in="SourceGraphic"/>
    </filter>
    <linearGradient id="linear-gradient" x1="104.7" y1="222.56" x2="225.44" y2="343.3" gradientUnits="userSpaceOnUse">
      <stop offset="0" stop-color="#00daf6"/>
      <stop offset="1" stop-color="#2164ff"/>
    </linearGradient>
    <linearGradient id="linear-gradient-2" x1="270.74" y1="56.94" x2="391.06" y2="177.26" xlink:href="#linear-gradient"/>
    <linearGradient id="linear-gradient-3" x1="54.25" y1="-41.75" x2="180.42" y2="84.42" xlink:href="#linear-gradient"/>
    <linearGradient id="linear-gradient-4" x1="38.25" y1="59.58" x2="132.42" y2="153.75" xlink:href="#linear-gradient"/>
    <linearGradient id="linear-gradient-5" x1="16.92" y1="166.25" x2="68.42" y2="217.75" xlink:href="#linear-gradient"/>
  </defs>
  <g style="filter: url(#drop-shadow-1);">
    <path d="M72.32,254.93c-3.26,3.29-5.36,7.56-5.97,12.16l-15.15,105.39c-1.57,12.57,6.19,24.32,24.32,24.32l105.39-15.15c4.6-.61,8.87-2.71,12.16-5.97l140.16-140.16-120.75-120.75L72.32,254.93Z" style="fill: url(#linear-gradient);"/>
    <path d="M242.99,84.69l120.32,120.32c13.41-15.44,20.76-35.23,20.69-55.68-.47-47.34-39.23-85.33-86.57-84.86-19.95.2-39.2,7.35-54.45,20.22h0Z" style="fill: url(#linear-gradient-2);"/>
    <path d="M21.33,42.67h192c11.78,0,21.33-9.55,21.33-21.33S225.12,0,213.33,0H21.33C9.55,0,0,9.55,0,21.33s9.55,21.33,21.33,21.33Z" style="fill: url(#linear-gradient-3);"/>
    <path d="M21.33,128h128c11.78,0,21.33-9.55,21.33-21.33s-9.55-21.33-21.33-21.33H21.33c-11.78,0-21.33,9.55-21.33,21.33s9.55,21.33,21.33,21.33Z" style="fill: url(#linear-gradient-4);"/>
    <path d="M64,170.67H21.33c-11.78,0-21.33,9.55-21.33,21.33s9.55,21.33,21.33,21.33h42.67c11.78,0,21.33-9.55,21.33-21.33s-9.55-21.33-21.33-21.33Z" style="fill: url(#linear-gradient-5);"/>
  </g>
</svg>