<?xml version="1.0" encoding="UTF-8"?>
<svg id="Layer_1" data-name="Layer 1" xmlns="http://www.w3.org/2000/svg" viewBox="0 0 511.99 512">
  <path d="M191.99,256c70.59,0,128-57.41,128-128S262.58,0,191.99,0,63.99,57.41,63.99,128s57.41,128,128,128ZM191.99,64c35.29,0,64,28.71,64,64s-28.71,64-64,64-64-28.71-64-64,28.71-64,64-64ZM234.65,369.94c-13.65-4.82-28.01-7.27-42.67-7.27-67.41,0-123.65,52.46-128.06,119.45-1.11,16.92-15.17,29.89-31.89,29.89-.7,0-1.41,0-2.13-.06-17.64-1.15-31-16.41-29.82-34.03,6.61-100.5,90.92-179.22,191.94-179.22,21.95,0,43.48,3.67,64,10.94,16.66,5.89,25.39,24.17,19.5,40.83-5.89,16.66-24.15,25.39-40.83,19.5l-.02-.02ZM496.2,341.67l-143.25,143.25c-17.34,17.34-40.85,27.07-65.37,27.07h-20.37c-5.89,0-10.67-4.78-10.67-10.67v-20.37c0-24.51,9.75-48.04,27.07-65.37l145.24-145.24c20.33-20.33,54.06-19.07,72.73,3.75,16.23,19.84,12.76,49.43-5.38,67.56h0Z" style="fill: #67748e;"/>
</svg>