<?xml version="1.0" encoding="UTF-8"?>
<svg id="Layer_1" data-name="Layer 1" xmlns="http://www.w3.org/2000/svg" viewBox="0 0 22 17">
  <g id="Layer_2" data-name="Layer 2">
    <path d="M18,17H4c-2.21,0-4-1.79-4-4V4C0,1.79,1.79,0,4,0h14c2.21,0,4,1.79,4,4v9c0,2.21-1.79,4-4,4ZM4,2c-1.1,0-2,.9-2,2v9c0,1.1.9,2,2,2h14c1.1,0,2-.9,2-2V4c0-1.1-.9-2-2-2H4Z" style="fill: #67748e;"/>
    <path d="M11,9.93c-1.11,0-2.19-.37-3.07-1.05L1.39,3.79c-.44-.34-.51-.97-.18-1.4.34-.44.97-.51,1.4-.18h0l6.54,5.09c1.08.84,2.6.84,3.68,0l6.54-5.09c.44-.34,1.06-.26,1.4.18.34.44.26,1.06-.18,1.4l-6.54,5.09c-.88.68-1.96,1.05-3.07,1.05Z" style="fill: #67748e;"/>
  </g>
</svg>