<?xml version="1.0" encoding="UTF-8"?>
<svg id="Capa_1" data-name="Capa 1" xmlns="http://www.w3.org/2000/svg" viewBox="0 0 60.9 67.67">
  <path d="M49.56,23.35h-10.11v6h10.11c3.01,0,5.34,1.54,5.34,2.86v26.61c0,1.32-2.33,2.86-5.34,2.86H11.34c-3.01,0-5.34-1.54-5.34-2.86v-26.61c0-1.32,2.33-2.86,5.34-2.86h10.11v-6h-10.11c-6.36,0-11.34,3.89-11.34,8.86v26.61c0,4.97,4.98,8.86,11.34,8.86h38.22c6.36,0,11.34-3.89,11.34-8.86v-26.61c0-4.97-4.98-8.86-11.34-8.86Z" style="fill: #67748e;"/>
  <path d="M21.57,14.95c.77,0,1.53-.29,2.12-.88l3.76-3.76v30.52c0,1.66,1.34,3,3,3s3-1.34,3-3V10.12l3.96,3.96c.59.59,1.35.88,2.12.88s1.53-.29,2.12-.88c1.17-1.17,1.17-3.07,0-4.24L32.69.88c-.59-.59-1.35-.88-2.12-.88h-.05c-.77,0-1.53.29-2.12.88l-8.96,8.96c-1.17,1.17-1.17,3.07,0,4.24.59.59,1.35.88,2.12.88Z" style="fill: #67748e;"/>
</svg>