<?xml version="1.0" encoding="UTF-8"?>
<svg id="Layer_1" data-name="Layer 1" xmlns="http://www.w3.org/2000/svg" xmlns:xlink="http://www.w3.org/1999/xlink" viewBox="0 0 506 462">
  <defs>
    <linearGradient id="linear-gradient" x1="67.33" y1="57.17" x2="416.83" y2="406.67" gradientUnits="userSpaceOnUse">
      <stop offset="0" stop-color="#00daf6"/>
      <stop offset="1" stop-color="#2164ff"/>
    </linearGradient>
    <filter id="drop-shadow-1" x="0" y="0" width="506" height="462" filterUnits="userSpaceOnUse">
      <feOffset dx="0" dy="10"/>
      <feGaussianBlur result="blur" stdDeviation="13"/>
      <feFlood flood-color="#0045a2" flood-opacity=".11"/>
      <feComposite in2="blur" operator="in"/>
      <feComposite in="SourceGraphic"/>
    </filter>
  </defs>
  <path d="M112.62,34.09c17.29-3.84,37.89-5.09,61.7-5.09h34.51c21.4,0,41.38,10.69,53.25,28.5l17.33,26c3.96,5.93,10.62,9.5,17.75,9.5h107.85c34.08,0,61.7,26.9,61.38,61.55-.39,41.26-.06,82.53-.06,123.79,0,23.82-1.25,44.41-5.09,61.7-3.9,17.54-10.74,32.95-22.82,45.04s-27.5,18.93-45.04,22.82c-17.29,3.84-37.89,5.09-61.7,5.09h-157.35c-23.82,0-44.41-1.25-61.7-5.09-17.53-3.9-32.95-10.74-45.04-22.82-12.08-12.08-18.93-27.5-22.82-45.04-3.84-17.29-5.09-37.89-5.09-61.7v-114.69c0-23.82,1.25-44.41,5.09-61.7,3.9-17.53,10.74-32.95,22.82-45.04,12.08-12.08,27.5-18.93,45.04-22.82h0Z" style="fill: url(#linear-gradient); fill-rule: evenodd; filter: url(#drop-shadow-1);"/>
</svg>