<?xml version="1.0" encoding="UTF-8"?>
<svg id="Capa_1" data-name="Capa 1" xmlns="http://www.w3.org/2000/svg" viewBox="0 0 469.13 512">
  <path d="M234.48,0h0c17.66,0,31.98,14.32,31.98,31.98v106.61c0,17.66-14.32,31.98-31.98,31.98h0c-17.66,0-31.98-14.32-31.98-31.98V31.98c0-17.66,14.32-31.98,31.98-31.98Z" style="fill: #67748e;"/>
  <path d="M309.1,105.33h0c-.16,10.74,5.26,20.79,14.31,26.57,80.39,49.11,105.74,154.1,56.62,234.48s-154.1,105.74-234.48,56.62-105.74-154.1-56.62-234.48c14.03-22.97,33.31-42.29,56.24-56.39,9.21-5.78,14.76-15.91,14.69-26.78h0c.05-17.66-14.23-32.02-31.89-32.07-6.07-.02-12.01,1.69-17.15,4.93C.79,146.55-33.01,291.15,35.34,401.18c68.34,110.03,212.95,143.82,322.98,75.48s143.82-212.95,75.48-322.98c-19.02-30.63-44.85-56.46-75.48-75.48-14.99-9.46-34.8-4.97-44.26,10.02-3.23,5.12-4.95,11.05-4.95,17.1Z" style="fill: #67748e;"/>
</svg>