<?xml version="1.0" encoding="UTF-8"?>
<svg id="Layer_1" data-name="Layer 1" xmlns="http://www.w3.org/2000/svg" viewBox="0 0 24 24">
  <path d="M20,5h-1.43c.2-.36.34-.75.4-1.17.13-.89-.1-1.77-.64-2.49-.54-.72-1.32-1.18-2.21-1.31-.89-.12-1.77.1-2.49.64-.7.52-1.23,1.2-1.63,1.88-.4-.68-.93-1.36-1.63-1.88C9.65.13,8.77-.09,7.88.03c-.89.13-1.67.59-2.21,1.31-.54.72-.76,1.6-.64,2.49.06.42.2.81.4,1.17h-1.43C1.79,5,0,6.79,0,9v2c0,1.1.9,2,2,2v6c0,2.76,2.24,5,5,5h4c.55,0,1-.45,1-1s-.45-1-1-1h-4c-1.65,0-3-1.35-3-3v-6h11c.55,0,1-.45,1-1s-.45-1-1-1H2v-2c0-1.1.9-2,2-2h16c1.1,0,2,.9,2,2v2c-.55,0-1,.45-1,1s.45,1,1,1c1.1,0,2-.9,2-2v-2c0-2.21-1.79-4-4-4h0ZM14.83,2.27c.29-.22.65-.31,1.01-.26.36.05.68.24.89.53.22.29.31.65.26,1-.05.36-.24.68-.56.92-.04.03-.37.28-1.02.53h-2.31c.22-.76.75-1.99,1.73-2.73h0ZM7.54,4.44c-.29-.22-.48-.54-.53-.89-.05-.36.04-.71.26-1.01.22-.29.53-.48.89-.53.35-.05.72.04,1.01.26.98.73,1.51,1.97,1.73,2.73h-2.31c-.65-.26-.98-.51-1.05-.56h0ZM23.94,16.63c.13.36.02.77-.27,1.02l-2.17,1.77.9,2.73c.12.37,0,.78-.31,1.01s-.73.25-1.06.04l-2.52-1.64-2.48,1.66c-.15.1-.33.16-.51.16-.19,0-.39-.06-.55-.18-.31-.23-.44-.64-.32-1.01l.86-2.76-2.18-1.77c-.29-.25-.4-.65-.27-1.01.13-.36.48-.6.86-.6h2.75l.97-2.73c.13-.36.48-.6.86-.6s.73.24.86.6l.97,2.73h2.75c.39,0,.73.24.86.6h0Z" style="fill: #67748e;"/>
</svg>