<?xml version="1.0" encoding="UTF-8"?>
<svg id="svg4323" xmlns="http://www.w3.org/2000/svg" xmlns:xlink="http://www.w3.org/1999/xlink" viewBox="0 0 682.67 682.67">
  <defs>
    <clipPath id="clippath">
      <rect y="0" width="682.67" height="682.67" style="fill: none;"/>
    </clipPath>
  </defs>
  <g id="g4329">
    <g id="g4331">
      <g style="clip-path: url(#clippath);">
        <g>
          <path d="M341.33,193.53c53.36,0,96.76-43.41,96.76-96.76S394.69,0,341.33,0s-96.77,43.41-96.77,96.77,43.41,96.76,96.77,96.76Z" style="fill: #67748e;"/>
          <path d="M341.33,244.57c-53.36,0-96.77,43.41-96.77,96.76s43.41,96.77,96.77,96.77,96.76-43.41,96.76-96.77-43.41-96.76-96.76-96.76Z" style="fill: #67748e;"/>
          <path d="M341.33,489.14c-53.36,0-96.77,43.41-96.77,96.77s43.41,96.76,96.77,96.76,96.76-43.41,96.76-96.76-43.41-96.77-96.76-96.77Z" style="fill: #67748e;"/>
        </g>
      </g>
    </g>
  </g>
</svg>