<?xml version="1.0" encoding="UTF-8"?>
<svg id="Layer_1" data-name="Layer 1" xmlns="http://www.w3.org/2000/svg" xmlns:xlink="http://www.w3.org/1999/xlink" viewBox="0 0 27.68 22.06">
  <defs>
    <filter id="drop-shadow-1" x="-39.16" y="-29.97" width="106" height="102" filterUnits="userSpaceOnUse">
      <feOffset dx="0" dy="10"/>
      <feGaussianBlur result="blur" stdDeviation="13"/>
      <feFlood flood-color="#0045a2" flood-opacity=".11"/>
      <feComposite in2="blur" operator="in"/>
      <feComposite in="SourceGraphic"/>
    </filter>
    <linearGradient id="linear-gradient" x1="2.05" y1="-.77" x2="25.64" y2="22.82" gradientUnits="userSpaceOnUse">
      <stop offset="0" stop-color="#00daf6"/>
      <stop offset="1" stop-color="#2164ff"/>
    </linearGradient>
  </defs>
  <g id="credit_card" data-name="credit card" style="filter: url(#drop-shadow-1);">
    <path d="M27.68,7.47v12.4c0,1.2-.97,2.18-2.17,2.19H7.48c-1.21,0-2.19-.98-2.19-2.19h0v-1.11h14.92c2.31,0,4.18-1.86,4.19-4.17V5.3h1.11c1.2,0,2.17.97,2.17,2.17ZM4.41,6.17h1.77v-1.77h-1.77v1.77ZM22.4,2.17v12.41c0,1.2-.98,2.18-2.19,2.17H2.19c-1.2,0-2.18-.97-2.19-2.17V2.17C0,.97.98,0,2.19,0h18.03c1.2,0,2.18.97,2.19,2.17ZM5.91,11.93c0-.55-.45-1-1-1h-1.5c-.55,0-1,.45-1,1s.45,1,1,1h1.5c.55,0,1-.45,1-1h0ZM6.33,8.17c1.02,0,1.85-.83,1.85-1.85v-2.07c0-1.02-.83-1.85-1.85-1.85h-2.07c-1.02,0-1.85.83-1.85,1.85v2.07c0,1.02.83,1.85,1.85,1.85h2.07ZM10.6,11.93c0-.55-.45-1-1-1h-1.5c-.55,0-1,.45-1,1s.45,1,1,1h1.5c.55,0,1-.45,1-1h0ZM15.29,11.93c0-.55-.45-1-1-1h-1.5c-.55,0-1,.45-1,1s.45,1,1,1h1.5c.55,0,1-.45,1-1h0ZM19.99,11.93c0-.55-.45-1-1-1h-1.5c-.55,0-1,.45-1,1s.45,1,1,1h1.5c.55,0,1-.45,1-1,0,0,0,0,0,0Z" style="fill: url(#linear-gradient);"/>
  </g>
</svg>