<?xml version="1.0" encoding="UTF-8"?>
<svg id="Layer_1" data-name="Layer 1" xmlns="http://www.w3.org/2000/svg" viewBox="0 0 469.33 469.33">
  <path d="M128,256v192c0,11.78-9.55,21.33-21.33,21.33H21.33c-11.78,0-21.33-9.55-21.33-21.33v-192c0-11.78,9.55-21.33,21.33-21.33h85.33c11.78,0,21.33,9.55,21.33,21.33ZM277.33,0h-85.33c-11.78,0-21.33,9.55-21.33,21.33v426.67c0,11.78,9.55,21.33,21.33,21.33h85.33c11.78,0,21.33-9.55,21.33-21.33V21.33c0-11.78-9.55-21.33-21.33-21.33ZM448,106.67h-85.33c-11.78,0-21.33,9.55-21.33,21.33v320c0,11.78,9.55,21.33,21.33,21.33h85.33c11.78,0,21.33-9.55,21.33-21.33V128c0-11.78-9.55-21.33-21.33-21.33Z"/>
</svg>