<?xml version="1.0" encoding="UTF-8"?>
<svg id="Layer_1" data-name="Layer 1" xmlns="http://www.w3.org/2000/svg" viewBox="0 0 512 512">
  <path d="M448,149.33h-66.86c29.92-27.28,46.53-66.19,45.53-106.67h-42.67c0,61.46-42.05,91.88-88.58,102.4,13.97-24.92,22.36-52.58,24.58-81.07,0-35.35-28.65-64-64-64s-64,28.65-64,64c2.22,28.48,10.61,56.15,24.58,81.07-46.53-10.52-88.58-40.94-88.58-102.4h-42.67c-1,40.47,15.61,79.39,45.53,106.67h-66.86C28.65,149.33,0,177.99,0,213.33v85.33h42.67v213.33h426.67v-213.33h42.67v-85.33c0-35.35-28.65-64-64-64ZM256,42.67c11.78,0,21.33,9.55,21.33,21.33-2.58,22.67-9.84,44.56-21.33,64.28-11.49-19.71-18.76-41.6-21.33-64.28,0-11.78,9.55-21.33,21.33-21.33ZM42.67,213.33c0-11.78,9.55-21.33,21.33-21.33h170.67v64H42.67v-42.67ZM85.33,298.67h149.33v170.67H85.33v-170.67ZM426.67,469.33h-149.33v-170.67h149.33v170.67ZM469.33,256h-192v-64h170.67c11.78,0,21.33,9.55,21.33,21.33v42.67Z" style="fill: #67748e;"/>
</svg>