<?xml version="1.0" encoding="UTF-8"?>
<svg id="Layer_1" data-name="Layer 1" xmlns="http://www.w3.org/2000/svg" viewBox="0 0 24 24.98">
  <path d="M22.24,14.74c-2.34-2.34-6.14-2.34-8.48,0s-2.34,6.14,0,8.49,6.14,2.34,8.48,0c2.34-2.34,2.34-6.14,0-8.49ZM21.54,21.1l-1.41,1.41-2.12-2.12-2.12,2.12-1.41-1.41,2.12-2.12-2.12-2.12,1.41-1.41,2.12,2.12,2.12-2.12,1.41,1.41-2.12,2.12,2.12,2.12Z" style="fill: #67748e;"/>
  <g>
    <path d="M20.5,5h-1.93c.2-.36.34-.75.4-1.17.13-.89-.1-1.77-.64-2.49-.54-.72-1.32-1.18-2.21-1.31-.89-.12-1.77.1-2.49.64-.7.52-1.23,1.2-1.63,1.88-.4-.68-.93-1.36-1.63-1.88C9.65.13,8.77-.09,7.88.03c-.89.13-1.67.59-2.21,1.31-.54.72-.77,1.6-.64,2.49.06.42.2.81.4,1.17h-1.93c-1.93,0-3.5,1.57-3.5,3.5v.5c0,1.1.9,2,2,2h20c1.1,0,2-.9,2-2v-.5c0-1.93-1.57-3.5-3.5-3.5ZM8.59,5c-.65-.26-.98-.51-1.05-.56h0c-.29-.22-.48-.54-.53-.89-.05-.36.04-.71.26-1.01.22-.29.53-.48.89-.53.35-.05.72.04,1.01.26.98.73,1.51,1.97,1.73,2.73h-2.31ZM16.43,4.47s-.37.28-1.02.53h-2.31c.22-.76.75-1.99,1.73-2.73.29-.22.65-.31,1.01-.26.36.05.68.24.89.53.22.29.31.65.26,1-.05.36-.24.68-.56.92Z" style="fill: #67748e;"/>
    <path d="M10.02,18.98c0-2.54,1.36-4.76,3.39-5.98H2v6c0,2.76,2.24,5,5,5h5.16c-1.32-1.27-2.14-3.05-2.14-5.02Z" style="fill: #67748e;"/>
  </g>
</svg>