<?xml version="1.0" encoding="UTF-8"?>
<svg id="Layer_1" data-name="Layer 1" xmlns="http://www.w3.org/2000/svg" viewBox="0 0 24 24">
  <path d="M20.5,5h-1.93c.2-.36.34-.75.4-1.17.13-.89-.1-1.77-.64-2.49-.54-.72-1.32-1.18-2.21-1.31-.89-.12-1.77.1-2.49.64-.7.52-1.23,1.2-1.63,1.88-.4-.68-.93-1.36-1.63-1.88C9.65.13,8.77-.09,7.88.03c-.89.13-1.67.59-2.21,1.31-.54.72-.77,1.6-.64,2.49.06.42.2.81.4,1.17h-1.93c-1.93,0-3.5,1.57-3.5,3.5v.5c0,1.1.9,2,2,2h20c1.1,0,2-.9,2-2v-.5c0-1.93-1.57-3.5-3.5-3.5ZM8.59,5c-.65-.26-.98-.51-1.05-.56h0c-.29-.22-.48-.54-.53-.89-.05-.36.04-.71.26-1.01.22-.29.53-.48.89-.53.35-.05.72.04,1.01.26.98.73,1.51,1.97,1.73,2.73h-2.31ZM16.43,4.47s-.37.28-1.02.53h-2.31c.22-.76.75-1.99,1.73-2.73.29-.22.65-.31,1.01-.26.36.05.68.24.89.53.22.29.31.65.26,1-.05.36-.24.68-.56.92Z" style="fill: #67748e;"/>
  <path d="M12.06,17.17c.52-.52,1.37-.52,1.89,0l1.72,1.72,4.39-4.39c.53-.51,1.37-.5,1.89.03.5.52.5,1.34,0,1.85l-5.34,5.34c-.52.52-1.37.52-1.89,0l-2.67-2.67c-.52-.52-.52-1.37,0-1.89h0Z" style="fill: #67748e;"/>
  <path d="M14.24,23.9c-.59-.16-1.16-.46-1.62-.93l-2.59-2.59c-1.44-1.44-1.44-3.79,0-5.23,1.43-1.43,3.75-1.44,5.2-.03l2.13-2.13H2v6c0,2.76,2.24,5,5,5h7.25s0-.07-.01-.1Z" style="fill: #67748e;"/>
</svg>