<?xml version="1.0" encoding="UTF-8"?>
<svg id="Layer" xmlns="http://www.w3.org/2000/svg" viewBox="0 0 384 384.71">
  <path id="gift" d="M27.73,224.14h148.27v153.6c0,3.53-2.87,6.4-6.4,6.4h-84.27c-30.93,4.41-59.59-17.08-64-48.02-.76-5.3-.76-10.68,0-15.98v-89.6c0-3.53,2.87-6.4,6.4-6.4h0ZM356.27,224.14h-148.27v153.6c0,3.53,2.87,6.4,6.4,6.4h84.27c30.93,4.41,59.59-17.08,64-48.02.76-5.3.76-10.68,0-15.98v-89.6c0-3.53-2.87-6.4-6.4-6.4h0ZM384,117.47v68.27c0,3.53-2.87,6.4-6.4,6.4h-169.6v-74.67h-32v74.67H6.4c-3.53,0-6.4-2.87-6.4-6.4h0v-68.27c0-17.67,14.33-32,32-32h22.72c-7.61-14.16-8.81-30.89-3.31-45.99C61.87,8.97,95.07-7.29,125.58,3.17c10.3,3.53,19.41,9.87,26.29,18.3.68.85,24.68,32.77,40.13,53.33l39.98-53.14c20.28-25.06,57.03-28.94,82.09-8.66,7.92,6.41,14.03,14.78,17.71,24.28,6.41,15.63,5.5,33.31-2.5,48.19h22.72c17.67,0,32,14.33,32,32h0ZM160,85.47c-14.49-19.2-32-42.41-33.11-43.93-4.97-6.03-12.41-9.49-20.22-9.41-14.73,0-26.67,11.94-26.67,26.67s11.94,26.67,26.67,26.67h53.33ZM304,58.8c-.02-14.72-11.95-26.64-26.67-26.67-7.96-.05-15.51,3.54-20.5,9.75-1,1.3-18.39,24.38-32.83,43.58h53.33c14.72-.02,26.64-11.95,26.67-26.67Z"/>
</svg>