<?xml version="1.0" encoding="UTF-8"?>
<svg id="Layer_1" data-name="Layer 1" xmlns="http://www.w3.org/2000/svg" viewBox="0 0 24 24">
  <path d="M22.34,13.83c-.61,2.45-2.81,4.17-5.33,4.17H7.19c-1.75,0-3.24-1.31-3.47-3.04L2.18,3.43c-.03-.25-.25-.43-.5-.43h-.19c-.83,0-1.5-.67-1.5-1.5S.67,0,1.5,0h.19c1.75,0,3.24,1.31,3.47,3.04l.26,1.96h5.08c.83,0,1.5.67,1.5,1.5s-.67,1.5-1.5,1.5h-4.68l.88,6.57c.03.25.25.43.5.43h9.81c1.15,0,2.15-.78,2.42-1.89.2-.8,1.01-1.29,1.82-1.09.8.2,1.29,1.02,1.09,1.82h0ZM24,5c0,2.76-2.24,5-5,5s-5-2.24-5-5S16.24,0,19,0s5,2.24,5,5ZM21,5.59l-1-1v-1.59c0-.55-.45-1-1-1h0c-.55,0-1,.45-1,1v2c0,.26.1.52.29.71l1.29,1.29c.39.39,1.02.39,1.41,0,.39-.39.39-1.02,0-1.41ZM7,20c-1.11,0-2,.9-2,2s.89,2,2,2,2-.9,2-2-.9-2-2-2ZM17,20c-1.1,0-2,.9-2,2s.9,2,2,2,2-.9,2-2-.9-2-2-2Z" style="fill: #67748e;"/>
</svg>