<?xml version="1.0" encoding="UTF-8"?>
<svg id="Capa_1" data-name="Capa 1" xmlns="http://www.w3.org/2000/svg" viewBox="0 0 437.3 512">
  <path d="M372.36,38.62C348.49,11.58,305.29,0,250.02,0H89.64c-11.3,0-20.9,8.16-22.69,19.2L.17,439.39c-1.31,8.29,5.15,15.78,13.6,15.78h99.01l24.86-156.48-.77,4.93c1.76-11.04,11.33-19.2,22.62-19.2h47.04c92.45,0,164.8-37.25,185.95-144.99.64-3.2,1.63-9.34,1.63-9.34,6.02-39.87-.03-66.91-21.76-91.46Z"/>
  <path d="M419.18,150.5c-22.98,106.08-96.29,162.21-212.64,162.21h-42.18l-31.49,199.3h68.42c9.89,0,18.3-7.14,19.84-16.83l.8-4.22,15.74-98.91,1.02-5.44c1.54-9.7,9.95-16.83,19.81-16.83h12.51c80.86,0,144.16-32.58,162.66-126.82,7.42-37.82,3.84-69.54-14.5-92.45Z"/>
</svg>