<?xml version="1.0" encoding="UTF-8"?>
<svg id="Layer_1" data-name="Layer 1" xmlns="http://www.w3.org/2000/svg" viewBox="0 0 31.56 30.1">
  <path id="ICO" d="M31.56,11.67c-.09-.51-.54-.88-1.06-.87l-9.52-1.39L16.71.78c-.09-.51-.58-.86-1.09-.76-.39.07-.7.37-.76.76l-4.27,8.63-9.52,1.39c-.52-.02-.98.35-1.06.87.05.35.21.67.47.91l6.9,6.71-1.63,9.49c-.02.13-.04.25-.04.38-.06.45.25.87.7.93.03,0,.06,0,.1,0,.27,0,.53-.09.76-.22l8.52-4.48,8.52,4.48c.23.14.49.21.76.22.45-.01.8-.39.79-.84,0-.04,0-.07,0-.1,0-.13,0-.25-.02-.38l-1.63-9.49,6.89-6.71c.27-.23.45-.56.49-.91Z" style="fill-rule: evenodd;"/>
</svg>