<?xml version="1.0" encoding="UTF-8"?>
<svg id="Layer_1" data-name="Layer 1" xmlns="http://www.w3.org/2000/svg" viewBox="0 0 494.93 443.73">
  <path d="M302.23,93.87c3.2-7.91,4.97-16.54,4.97-25.6C307.2,30.57,276.63,0,238.93,0s-68.27,30.57-68.27,68.27c0,9.05,1.77,17.7,4.97,25.6h126.6Z"/>
  <path d="M54.78,237.59c-2.27,10.05-3.58,20.46-3.58,31.21,0,54.7,31.25,102,76.8,125.31v32.55c0,9.42,7.65,17.07,17.07,17.07h42.67c9.42,0,17.07-7.65,17.07-17.07v-17.07h93.87v17.07c0,9.42,7.65,17.07,17.07,17.07h42.67c9.42,0,17.07-7.65,17.07-17.07v-32.55c31.82-16.3,56.55-44.31,68.62-78.38h25.25c14.13,0,25.6-11.46,25.6-25.6v-42.67c0-14.14-11.47-25.6-25.6-25.6h-25.25c-10.96-30.95-32.38-56.87-60.08-73.58v-62.95c0-4.64-3.9-8.53-8.53-8.53-28.48,0-51.2,23.07-51.2,51.2,0,.21-132.27,0-132.27,0-54.63,0-101.89,31.17-125.24,76.65-18.13-.79-32.63-15.65-32.63-33.98s15.28-34.13,34.13-34.13h17.07s0-34.13,0-34.13h-17.07C30.57,102.4,0,132.97,0,170.67c0,33.08,23.54,60.66,54.78,66.93ZM324.27,217.6c0-11.78,9.55-21.33,21.33-21.33s21.33,9.55,21.33,21.33c0,11.78-9.55,21.33-21.33,21.33s-21.33-9.55-21.33-21.33Z"/>
</svg>