<?xml version="1.0" encoding="UTF-8"?>
<svg id="solid" xmlns="http://www.w3.org/2000/svg" viewBox="0 0 384 396.8">
  <path d="M72.32,254.93c-3.26,3.29-5.36,7.56-5.97,12.16l-15.15,105.39c-1.57,12.57,6.19,24.32,24.32,24.32l105.39-15.15c4.6-.61,8.87-2.71,12.16-5.97l140.16-140.16-120.75-120.75L72.32,254.93Z" style="fill: #001f3e;"/>
  <path d="M242.99,84.69l120.32,120.32c13.41-15.44,20.76-35.23,20.69-55.68-.47-47.34-39.23-85.33-86.57-84.86-19.95.2-39.2,7.35-54.45,20.22h0Z" style="fill: #001f3e;"/>
  <path d="M21.33,42.67h192c11.78,0,21.33-9.55,21.33-21.33S225.12,0,213.33,0H21.33C9.55,0,0,9.55,0,21.33s9.55,21.33,21.33,21.33Z" style="fill: #001f3e;"/>
  <path d="M21.33,128h128c11.78,0,21.33-9.55,21.33-21.33s-9.55-21.33-21.33-21.33H21.33c-11.78,0-21.33,9.55-21.33,21.33s9.55,21.33,21.33,21.33Z" style="fill: #001f3e;"/>
  <path d="M64,170.67H21.33c-11.78,0-21.33,9.55-21.33,21.33s9.55,21.33,21.33,21.33h42.67c11.78,0,21.33-9.55,21.33-21.33s-9.55-21.33-21.33-21.33Z" style="fill: #001f3e;"/>
</svg>