<?xml version="1.0" encoding="UTF-8"?>
<svg id="Layer_2" data-name="Layer 2" xmlns="http://www.w3.org/2000/svg" viewBox="0 0 426.53 426.67">
  <path d="M423.94,116.67l-18.6-68.33c-7.75-28.46-33.75-48.33-63.25-48.33H84.44C54.95,0,28.95,19.87,21.2,48.33L2.59,116.67c-6.06,22.27-1.38,45.73,12.87,64.38,15.45,20.21,40.5,32.29,67,32.29s49.06-11.65,64.18-29.45c16.64,17.99,40.23,29.45,66.61,29.45s49.98-11.46,66.62-29.45c15.12,17.8,38.12,29.45,64.19,29.45s51.54-12.06,66.99-32.29c14.25-18.62,18.95-42.1,12.89-64.37h0Z" style="fill: #67748e;"/>
  <path d="M383.87,234.67c-11.78,0-21.33,9.54-21.33,21.33v93.64c0,18.94-15.41,34.36-34.34,34.36h-29.66v-64c0-47.06-38.28-85.33-85.33-85.33s-85.33,38.27-85.33,85.33v64h-29.65c-18.95,0-34.36-15.42-34.36-34.36v-93.64c0-11.79-9.55-21.33-21.33-21.33s-21.33,9.54-21.33,21.33v93.64c0,42.48,34.55,77.02,77.02,77.02h229.97c42.47,0,77.01-34.54,77.01-77.02v-93.64c0-11.79-9.55-21.33-21.33-21.33h0Z" style="fill: #67748e;"/>
</svg>