<?xml version="1.0" encoding="UTF-8"?>
<svg id="Layer_1" data-name="Layer 1" xmlns="http://www.w3.org/2000/svg" viewBox="0 0 403.47 402.68">
  <path d="M234.67.27c-25.6-2.13-49.07,8.53-68.27,25.6L25.6,166.67c-34.13,34.13-34.13,87.47,0,121.6l89.6,89.6c34.13,34.13,87.47,32,121.6,0l140.8-140.8c17.07-17.07,27.73-42.67,25.6-68.27l-6.4-85.33c-2.13-42.67-36.27-74.67-78.93-78.93L234.67.27ZM251.73,151.74c17.07,17.07,42.67,17.07,59.73,0,17.07-17.07,17.07-42.67,0-59.73-17.07-17.07-42.67-17.07-59.73,0-17.07,14.93-17.07,42.67,0,59.73Z" style="fill-rule: evenodd;"/>
</svg>