<?xml version="1.0" encoding="UTF-8"?>
<svg id="Layer_1" data-name="Layer 1" xmlns="http://www.w3.org/2000/svg" viewBox="0 0 330.67 288">
  <path d="M175.35,219.31l64,64c6.25,6.25,16.38,6.25,22.63,0l64-64c6.25-6.25,6.25-16.38,0-22.63s-16.38-6.25-22.63,0l-36.69,36.68V16c0-8.84-7.16-16-16-16s-16,7.16-16,16v217.37l-36.69-36.68c-6.25-6.25-16.38-6.25-22.63,0s-6.25,16.38,0,22.63h0ZM91.31,4.69c-6.25-6.25-16.38-6.25-22.63,0L4.69,68.69c-6.25,6.25-6.25,16.38,0,22.63s16.38,6.25,22.63,0l36.69-36.69v217.37c0,8.84,7.16,16,16,16s16-7.16,16-16V54.63l36.69,36.69c6.25,6.25,16.38,6.25,22.63,0s6.25-16.38,0-22.63L91.31,4.69Z" style="fill: #67748e; fill-rule: evenodd;"/>
</svg>