<?xml version="1.0" encoding="UTF-8"?>
<svg id="Layer_1" data-name="Layer 1" xmlns="http://www.w3.org/2000/svg" viewBox="0 0 413.63 413.63">
  <path d="M413.22,149.79c3.06,17.41-11.55,31.84-29.22,31.84h-136c-8.84,0-16-7.16-16-16V29.63c0-17.67,14.43-32.28,31.84-29.22,13.2,2.32,26.14,6.08,38.58,11.23,22.32,9.25,42.61,22.8,59.69,39.89,17.09,17.09,30.64,37.37,39.89,59.69,5.15,12.44,8.91,25.38,11.23,38.57h0ZM381.34,253.48c2.93-17.43-11.67-31.85-29.34-31.85h-144.64c-8.58,0-15.64-6.77-15.99-15.35l-5.9-144.52c-.72-17.66-15.73-31.66-33.02-28.02-26.11,5.5-50.92,16.4-72.75,32.15-30.53,22.02-53.92,52.52-67.25,87.72C-.88,188.82-3.58,227.16,4.71,263.88s27.17,70.19,54.33,96.26,61.37,43.58,98.4,50.36,75.23,2.52,109.85-12.24c34.63-14.76,64.15-39.37,84.9-70.77,14.84-22.46,24.73-47.68,29.16-74h0Z" style="fill-rule: evenodd;"/>
</svg>