<?xml version="1.0" encoding="UTF-8"?>
<svg id="Capa_1" data-name="Capa 1" xmlns="http://www.w3.org/2000/svg" viewBox="0 0 405.95 512">
  <path d="M405.71,422.21l-22.86-288.11c-1.42-18.56-17.12-33.1-35.74-33.1h-45.16v66.92c0,8.29-6.71,14.99-14.99,14.99s-14.99-6.71-14.99-14.99v-66.92h-137.95v66.92c0,8.29-6.72,14.99-14.99,14.99s-14.99-6.71-14.99-14.99v-66.92h-45.16c-18.61,0-34.32,14.53-35.74,33.06L.24,422.25c-1.77,23.08,6.24,46.05,21.96,63.03,15.73,16.97,38.02,26.72,61.16,26.72h239.24c23.14,0,45.43-9.75,61.16-26.72,15.72-16.97,23.73-39.95,21.95-63.07ZM270.54,275.49l-77.55,77.55c-2.93,2.93-6.77,4.4-10.61,4.4s-7.68-1.47-10.61-4.4l-36.35-36.35c-5.86-5.86-5.86-15.35,0-21.2,5.86-5.86,15.35-5.86,21.2,0l25.75,25.74,66.96-66.96c5.85-5.85,15.35-5.85,21.2,0,5.86,5.86,5.86,15.35,0,21.21Z"/>
  <path d="M134.01,98.97c0-38.04,30.94-68.99,68.98-68.99s68.98,30.95,68.98,68.99v2.03h29.99v-2.03c0-54.57-44.4-98.97-98.97-98.97s-98.97,44.4-98.97,98.97v2.03h29.99v-2.03Z"/>
</svg>