<?xml version="1.0" encoding="UTF-8"?>
<svg id="Layer_1" data-name="Layer 1" xmlns="http://www.w3.org/2000/svg" xmlns:xlink="http://www.w3.org/1999/xlink" viewBox="0 0 512 512">
  <defs>
    <clipPath id="clippath">
      <rect width="512" height="512" style="fill: none;"/>
    </clipPath>
  </defs>
  <g style="clip-path: url(#clippath);">
    <path d="M85.33,245.33v85.33c0,17.71,14.29,32,32,32s32-14.29,32-32v-85.33c0-17.71-14.29-32-32-32s-32,14.29-32,32ZM213.33,245.33v85.33c0,17.71,14.29,32,32,32s32-14.29,32-32v-85.33c0-17.71-14.29-32-32-32s-32,14.29-32,32ZM74.67,469.33h341.33c17.71,0,32-14.29,32-32s-14.29-32-32-32H74.67c-17.71,0-32,14.29-32,32s14.29,32,32,32ZM341.33,245.33v85.33c0,17.71,14.29,32,32,32s32-14.29,32-32v-85.33c0-17.71-14.29-32-32-32s-32,14.29-32,32ZM225.49,31.79L56.96,120.53c-8.75,4.48-14.29,13.65-14.29,23.47,0,14.72,11.95,26.67,26.67,26.67h352.21c14.51,0,26.45-11.95,26.45-26.67,0-9.81-5.55-18.99-14.29-23.47L265.17,31.79c-12.37-6.61-27.31-6.61-39.68,0h0Z" style="fill: #67748e;"/>
  </g>
</svg>